<svg width="759" height="202" viewBox="0 0 759 202" fill="none" xmlns="http://www.w3.org/2000/svg">
<path d="M269.227 150.214H275.672C275.5 152.495 274.867 154.518 273.773 156.284C272.68 158.034 271.156 159.409 269.203 160.409C267.25 161.409 264.883 161.909 262.102 161.909C259.961 161.909 258.031 161.534 256.312 160.784C254.609 160.018 253.148 158.933 251.93 157.526C250.727 156.104 249.805 154.401 249.164 152.417C248.523 150.417 248.203 148.175 248.203 145.69V143.089C248.203 140.604 248.531 138.362 249.188 136.362C249.844 134.362 250.781 132.659 252 131.253C253.234 129.831 254.711 128.737 256.43 127.972C258.164 127.206 260.102 126.823 262.242 126.823C265.023 126.823 267.375 127.339 269.297 128.37C271.219 129.386 272.711 130.784 273.773 132.565C274.836 134.347 275.477 136.393 275.695 138.706H269.25C269.125 137.268 268.812 136.05 268.312 135.05C267.828 134.05 267.094 133.292 266.109 132.776C265.141 132.245 263.852 131.979 262.242 131.979C260.992 131.979 259.891 132.214 258.938 132.683C258 133.151 257.219 133.854 256.594 134.792C255.969 135.714 255.5 136.87 255.188 138.261C254.875 139.636 254.719 141.229 254.719 143.042V145.69C254.719 147.425 254.859 148.979 255.141 150.354C255.422 151.729 255.859 152.893 256.453 153.847C257.047 154.8 257.812 155.526 258.75 156.026C259.688 156.526 260.805 156.776 262.102 156.776C263.68 156.776 264.961 156.526 265.945 156.026C266.945 155.526 267.703 154.792 268.219 153.823C268.75 152.854 269.086 151.651 269.227 150.214ZM295.569 127.315V161.44H289.147V127.315H295.569ZM306.163 127.315V132.401H278.671V127.315H306.163ZM324.537 148.995H315.748V143.933H324.537C325.975 143.933 327.139 143.698 328.029 143.229C328.936 142.745 329.6 142.089 330.022 141.261C330.443 140.417 330.654 139.456 330.654 138.378C330.654 137.331 330.443 136.354 330.022 135.448C329.6 134.542 328.936 133.808 328.029 133.245C327.139 132.683 325.975 132.401 324.537 132.401H317.857V161.44H311.412V127.315H324.537C327.193 127.315 329.459 127.792 331.334 128.745C333.225 129.683 334.662 130.987 335.647 132.659C336.647 134.315 337.147 136.206 337.147 138.331C337.147 140.534 336.647 142.433 335.647 144.026C334.662 145.62 333.225 146.847 331.334 147.706C329.459 148.565 327.193 148.995 324.537 148.995ZM370.802 143.511V145.268C370.802 147.847 370.458 150.167 369.771 152.229C369.083 154.276 368.107 156.018 366.841 157.456C365.575 158.893 364.067 159.995 362.317 160.761C360.567 161.526 358.622 161.909 356.482 161.909C354.372 161.909 352.435 161.526 350.669 160.761C348.919 159.995 347.403 158.893 346.122 157.456C344.841 156.018 343.849 154.276 343.146 152.229C342.442 150.167 342.091 147.847 342.091 145.268V143.511C342.091 140.917 342.442 138.597 343.146 136.55C343.849 134.503 344.833 132.761 346.099 131.323C347.364 129.87 348.872 128.761 350.622 127.995C352.388 127.229 354.325 126.847 356.435 126.847C358.575 126.847 360.521 127.229 362.271 127.995C364.021 128.761 365.528 129.87 366.794 131.323C368.075 132.761 369.06 134.503 369.747 136.55C370.45 138.597 370.802 140.917 370.802 143.511ZM364.286 145.268V143.464C364.286 141.604 364.114 139.972 363.771 138.565C363.427 137.143 362.919 135.948 362.247 134.979C361.575 134.011 360.747 133.284 359.763 132.8C358.778 132.3 357.669 132.05 356.435 132.05C355.185 132.05 354.075 132.3 353.107 132.8C352.153 133.284 351.341 134.011 350.669 134.979C349.997 135.948 349.482 137.143 349.122 138.565C348.778 139.972 348.607 141.604 348.607 143.464V145.268C348.607 147.112 348.778 148.745 349.122 150.167C349.482 151.589 349.997 152.792 350.669 153.776C351.357 154.745 352.185 155.479 353.153 155.979C354.122 156.479 355.232 156.729 356.482 156.729C357.732 156.729 358.841 156.479 359.81 155.979C360.778 155.479 361.591 154.745 362.247 153.776C362.919 152.792 363.427 151.589 363.771 150.167C364.114 148.745 364.286 147.112 364.286 145.268ZM383.527 151.128L397.942 127.315H404.41V161.44H397.942V137.628L383.527 161.44H377.082V127.315H383.527V151.128ZM394.192 118.479H398.692C398.692 119.792 398.371 120.956 397.731 121.972C397.09 122.987 396.176 123.784 394.988 124.362C393.817 124.925 392.426 125.206 390.817 125.206C388.395 125.206 386.473 124.581 385.051 123.331C383.629 122.081 382.918 120.464 382.918 118.479H387.418C387.418 119.308 387.676 120.05 388.192 120.706C388.707 121.362 389.582 121.69 390.817 121.69C392.051 121.69 392.918 121.362 393.418 120.706C393.934 120.05 394.192 119.308 394.192 118.479ZM414.745 127.315H420.323L429.652 153.003L438.956 127.315H444.558L431.878 161.44H427.402L414.745 127.315ZM411.933 127.315H417.394L418.378 150.917V161.44H411.933V127.315ZM441.886 127.315H447.37V161.44H440.925V150.917L441.886 127.315ZM468.885 132.495L459.158 161.44H452.338L465.088 127.315H469.447L468.885 132.495ZM477.018 161.44L467.244 132.495L466.658 127.315H471.041L483.862 161.44H477.018ZM476.572 148.761V153.847H458.268V148.761H476.572ZM500.033 127.315V161.44H493.611V127.315H500.033ZM510.626 127.315V132.401H483.134V127.315H510.626ZM538.492 156.378V161.44H520.352V156.378H538.492ZM522.321 127.315V161.44H515.875V127.315H522.321ZM536.125 141.401V146.347H520.352V141.401H536.125ZM538.422 127.315V132.401H520.352V127.315H538.422ZM557.054 148.995H548.265V143.933H557.054C558.492 143.933 559.656 143.698 560.546 143.229C561.453 142.745 562.117 142.089 562.538 141.261C562.96 140.417 563.171 139.456 563.171 138.378C563.171 137.331 562.96 136.354 562.538 135.448C562.117 134.542 561.453 133.808 560.546 133.245C559.656 132.683 558.492 132.401 557.054 132.401H550.374V161.44H543.929V127.315H557.054C559.71 127.315 561.976 127.792 563.851 128.745C565.742 129.683 567.179 130.987 568.163 132.659C569.163 134.315 569.663 136.206 569.663 138.331C569.663 140.534 569.163 142.433 568.163 144.026C567.179 145.62 565.742 146.847 563.851 147.706C561.976 148.565 559.71 148.995 557.054 148.995ZM581.991 151.128L596.405 127.315H602.873V161.44H596.405V137.628L581.991 161.44H575.545V127.315H581.991V151.128ZM624.388 132.495L614.662 161.44H607.841L620.591 127.315H624.951L624.388 132.495ZM632.521 161.44L622.747 132.495L622.162 127.315H626.544L639.365 161.44H632.521ZM632.076 148.761V153.847H613.771V148.761H632.076ZM666.832 127.315V132.401H650.168V127.315H666.832ZM671.59 127.315V161.44H665.122V127.315H671.59ZM649.137 127.315H655.559L654.715 144.354C654.59 146.87 654.364 149.073 654.036 150.964C653.707 152.854 653.262 154.472 652.7 155.815C652.137 157.143 651.434 158.222 650.59 159.05C649.747 159.878 648.747 160.487 647.59 160.878C646.45 161.253 645.122 161.44 643.606 161.44H641.989V156.378L642.903 156.284C643.7 156.222 644.387 156.026 644.965 155.698C645.559 155.37 646.067 154.878 646.489 154.222C646.911 153.55 647.254 152.69 647.52 151.643C647.801 150.597 648.02 149.323 648.176 147.823C648.348 146.323 648.473 144.565 648.551 142.55L649.137 127.315ZM706.793 143.511V145.268C706.793 147.847 706.449 150.167 705.761 152.229C705.074 154.276 704.097 156.018 702.832 157.456C701.566 158.893 700.058 159.995 698.308 160.761C696.558 161.526 694.613 161.909 692.472 161.909C690.363 161.909 688.425 161.526 686.66 160.761C684.91 159.995 683.394 158.893 682.113 157.456C680.832 156.018 679.839 154.276 679.136 152.229C678.433 150.167 678.082 147.847 678.082 145.268V143.511C678.082 140.917 678.433 138.597 679.136 136.55C679.839 134.503 680.824 132.761 682.089 131.323C683.355 129.87 684.863 128.761 686.613 127.995C688.378 127.229 690.316 126.847 692.425 126.847C694.566 126.847 696.511 127.229 698.261 127.995C700.011 128.761 701.519 129.87 702.785 131.323C704.066 132.761 705.05 134.503 705.738 136.55C706.441 138.597 706.793 140.917 706.793 143.511ZM700.277 145.268V143.464C700.277 141.604 700.105 139.972 699.761 138.565C699.418 137.143 698.91 135.948 698.238 134.979C697.566 134.011 696.738 133.284 695.753 132.8C694.769 132.3 693.66 132.05 692.425 132.05C691.175 132.05 690.066 132.3 689.097 132.8C688.144 133.284 687.332 134.011 686.66 134.979C685.988 135.948 685.472 137.143 685.113 138.565C684.769 139.972 684.597 141.604 684.597 143.464V145.268C684.597 147.112 684.769 148.745 685.113 150.167C685.472 151.589 685.988 152.792 686.66 153.776C687.347 154.745 688.175 155.479 689.144 155.979C690.113 156.479 691.222 156.729 692.472 156.729C693.722 156.729 694.832 156.479 695.8 155.979C696.769 155.479 697.582 154.745 698.238 153.776C698.91 152.792 699.418 151.589 699.761 150.167C700.105 148.745 700.277 147.112 700.277 145.268ZM726.292 146.229H717.573L717.526 141.683H725.003C726.284 141.683 727.354 141.503 728.213 141.143C729.073 140.784 729.721 140.261 730.159 139.573C730.612 138.886 730.838 138.05 730.838 137.065C730.838 135.972 730.628 135.081 730.206 134.393C729.799 133.706 729.159 133.206 728.284 132.893C727.409 132.565 726.299 132.401 724.956 132.401H719.659V161.44H713.213V127.315H724.956C726.893 127.315 728.62 127.503 730.135 127.878C731.667 128.237 732.963 128.8 734.026 129.565C735.088 130.331 735.893 131.292 736.44 132.448C737.003 133.604 737.284 134.979 737.284 136.573C737.284 137.979 736.956 139.276 736.299 140.464C735.659 141.636 734.667 142.589 733.323 143.323C731.995 144.058 730.307 144.479 728.26 144.589L726.292 146.229ZM726.01 161.44H715.674L718.37 156.378H726.01C727.292 156.378 728.346 156.167 729.174 155.745C730.018 155.323 730.643 154.745 731.049 154.011C731.471 153.261 731.682 152.401 731.682 151.433C731.682 150.37 731.495 149.448 731.12 148.667C730.76 147.886 730.182 147.284 729.385 146.862C728.604 146.44 727.573 146.229 726.292 146.229H719.588L719.635 141.683H728.167L729.643 143.44C731.612 143.456 733.213 143.847 734.448 144.612C735.698 145.378 736.62 146.362 737.213 147.565C737.807 148.768 738.104 150.065 738.104 151.456C738.104 153.643 737.628 155.479 736.674 156.964C735.737 158.448 734.362 159.565 732.549 160.315C730.753 161.065 728.573 161.44 726.01 161.44Z" fill="#EF8B41"/>
<path d="M250.395 74.8466H254.332L261.732 94.5868L269.115 74.8466H273.053L263.279 100.44H260.15L250.395 74.8466ZM248.602 74.8466H252.346L252.996 91.9325V100.44H248.602V74.8466ZM271.102 74.8466H274.863V100.44H270.451V91.9325L271.102 74.8466ZM290.385 78.2568L282.738 100.44H278.115L287.748 74.8466H290.701L290.385 78.2568ZM296.783 100.44L289.119 78.2568L288.785 74.8466H291.756L301.424 100.44H296.783ZM296.414 90.9482V94.4462H282.492V90.9482H296.414ZM320.654 74.8466V78.3622H308.771V100.44H304.377V74.8466H320.654ZM330.814 78.2568L323.168 100.44H318.545L328.178 74.8466H331.131L330.814 78.2568ZM337.213 100.44L329.549 78.2568L329.215 74.8466H332.186L341.854 100.44H337.213ZM336.844 90.9482V94.4462H322.922V90.9482H336.844ZM353.49 88.1708H349.939V85.6572H352.998C354.088 85.6572 354.973 85.4989 355.652 85.1825C356.332 84.8544 356.824 84.4032 357.129 83.829C357.445 83.2431 357.604 82.5634 357.604 81.79C357.604 81.0986 357.428 80.4657 357.076 79.8915C356.736 79.3173 356.209 78.8603 355.494 78.5204C354.779 78.1689 353.859 77.9931 352.734 77.9931C351.891 77.9931 351.123 78.1454 350.432 78.4501C349.74 78.7548 349.189 79.1825 348.779 79.7333C348.381 80.2841 348.182 80.9345 348.182 81.6845H343.77C343.77 80.5712 344.004 79.5751 344.473 78.6962C344.953 77.8056 345.604 77.0497 346.424 76.4286C347.256 75.8075 348.211 75.3329 349.289 75.0048C350.379 74.665 351.527 74.495 352.734 74.495C354.141 74.495 355.412 74.6532 356.549 74.9697C357.686 75.2743 358.664 75.7314 359.484 76.3407C360.305 76.9501 360.932 77.7118 361.365 78.6259C361.799 79.5282 362.016 80.5771 362.016 81.7724C362.016 82.6513 361.811 83.4775 361.4 84.2509C361.002 85.0243 360.428 85.704 359.678 86.29C358.928 86.8759 358.025 87.3388 356.971 87.6786C355.928 88.0068 354.768 88.1708 353.49 88.1708ZM349.939 86.6415H353.49C354.908 86.6415 356.168 86.788 357.27 87.081C358.371 87.3739 359.303 87.8017 360.064 88.3642C360.826 88.9267 361.406 89.6239 361.805 90.456C362.203 91.2763 362.402 92.2197 362.402 93.2861C362.402 94.4814 362.162 95.5478 361.682 96.4853C361.213 97.4111 360.545 98.1962 359.678 98.8407C358.811 99.4853 357.785 99.9716 356.602 100.3C355.43 100.628 354.141 100.792 352.734 100.792C351.598 100.792 350.473 100.651 349.359 100.37C348.258 100.077 347.256 99.6318 346.354 99.0341C345.463 98.4247 344.748 97.6513 344.209 96.7138C343.67 95.7763 343.4 94.6513 343.4 93.3388H347.83C347.83 94.0654 348.035 94.7333 348.445 95.3427C348.867 95.9404 349.441 96.4208 350.168 96.7841C350.906 97.1357 351.762 97.3114 352.734 97.3114C353.848 97.3114 354.791 97.1357 355.564 96.7841C356.35 96.4325 356.947 95.9521 357.357 95.3427C357.779 94.7333 357.99 94.0478 357.99 93.2861C357.99 92.5595 357.879 91.9325 357.656 91.4052C357.445 90.8661 357.129 90.4325 356.707 90.1044C356.285 89.7646 355.764 89.5126 355.143 89.3486C354.521 89.1845 353.807 89.1025 352.998 89.1025H349.939V86.6415ZM370.945 93.2509L382.301 74.8466H386.713V100.44H382.301V82.0185L370.945 100.44H366.551V74.8466H370.945V93.2509ZM408.914 85.5341V89.0322H395.326V85.5341H408.914ZM396.416 74.8466V100.44H392.004V74.8466H396.416ZM412.307 74.8466V100.44H407.912V74.8466H412.307Z" fill="#349932"/>
<path d="M192 180.94C192 187.292 186.851 192.44 180.5 192.44C174.149 192.44 169 187.292 169 180.94C169 174.589 174.149 169.44 180.5 169.44C186.851 169.44 192 174.589 192 180.94Z" fill="#EF8B41"/>
<path d="M132 180.94C132 187.292 126.851 192.44 120.5 192.44C114.149 192.44 109 187.292 109 180.94C109 174.589 114.149 169.44 120.5 169.44C126.851 169.44 132 174.589 132 180.94Z" fill="#EF8B41"/>
<path d="M29 101.44C24.8579 101.44 21.5 104.798 21.5 108.94C21.5 113.082 24.8579 116.44 29 116.44V101.44ZM225.705 99.0492L219.95 103.858L219.95 103.858L225.705 99.0492ZM150.767 9.35883L156.523 4.55004L156.523 4.55004L150.767 9.35883ZM149.233 9.35883L154.988 14.1676L149.233 9.35883ZM81.5 108.94L88.2811 105.736C87.0417 103.113 84.4009 101.44 81.5 101.44V108.94ZM198 100.69V93.1904C193.858 93.1904 190.5 96.5482 190.5 100.69H198ZM82.4164 77.6316C79.7606 80.8102 80.1845 85.54 83.3631 88.1958C86.5418 90.8517 91.2716 90.4278 93.9274 87.2491L82.4164 77.6316ZM103.025 154.663L95.7114 156.325L103.025 154.663ZM102.904 154.237L96.1231 157.442L102.904 154.237ZM197 147.94H104V162.94H197V147.94ZM104 147.94C107.102 147.94 109.68 150.106 110.338 153.001L95.7114 156.325C96.5718 160.11 99.9464 162.94 104 162.94V147.94ZM190.5 154.44C190.5 150.851 193.41 147.94 197 147.94V162.94C201.694 162.94 205.5 159.135 205.5 154.44H190.5ZM145.012 14.1676L219.95 103.858L231.461 94.2404L156.523 4.55004L145.012 14.1676ZM219.95 103.858C216.414 99.6259 219.423 93.1904 224.938 93.1904V108.19C232.149 108.19 236.084 99.7746 231.461 94.2404L219.95 103.858ZM156.523 4.55004C153.125 0.483297 146.875 0.483344 143.477 4.55004L154.988 14.1676C152.39 17.2774 147.61 17.2775 145.012 14.1676L156.523 4.55004ZM81.5 101.44H29V116.44H81.5V101.44ZM109.685 151.033L88.2811 105.736L74.7189 112.145L96.1231 157.442L109.685 151.033ZM224.938 93.1904H198V108.19H224.938V93.1904ZM190.5 100.69V154.44H205.5V100.69H190.5ZM93.9274 87.2491L154.988 14.1676L143.477 4.55004L82.4164 77.6316L93.9274 87.2491ZM110.338 153.001C110.339 153.003 110.349 153.051 110.328 152.951C110.315 152.893 110.286 152.759 110.245 152.6C110.166 152.289 110.003 151.706 109.685 151.033L96.1231 157.442C95.8681 156.902 95.7494 156.461 95.7066 156.292C95.6845 156.205 95.6714 156.144 95.6744 156.158C95.6782 156.175 95.6752 156.161 95.6844 156.204C95.6901 156.23 95.6998 156.274 95.7114 156.325L110.338 153.001Z" fill="#EF8B41"/>
<path d="M101.932 118.242C114.62 88.0986 133.213 61.0518 156.262 38.5496L179.097 65.8809C149.008 76.9769 122.773 95.9883 102.941 120.377L101.932 118.242Z" fill="#349932"/>
<path d="M105.801 126.429C124.507 100.206 151.443 80.2582 182.838 70.3583L196.163 86.3057C189.022 87.2086 183.5 93.3046 183.5 100.69V108.44C157.099 112.96 132.175 121.807 109.485 134.224L105.801 126.429Z" fill="#F7D739"/>
<path d="M183.5 113.36C157.781 117.763 133.713 127.005 112.268 140.115L112.658 140.94H183.5V113.36Z" fill="#FF2226"/>
</svg>
